<svg width="314" height="166" viewBox="0 0 314 166" fill="none" xmlns="http://www.w3.org/2000/svg">
<path d="M88.2382 107.979H115.792V114.243H80.5311V56.1495H88.2382V107.979Z" fill="#F2F2F2"/>
<path d="M145.861 90.7425H132.204V114.243H124.497V56.1495H143.745C150.294 56.1495 155.326 57.6391 158.84 60.6183C162.38 63.5975 164.151 67.9332 164.151 73.6255C164.151 77.2431 163.166 80.3952 161.196 83.0817C159.252 85.7683 156.537 87.7766 153.049 89.1066L166.706 113.764V114.243H158.48L145.861 90.7425ZM132.204 84.4782H143.985C147.792 84.4782 150.813 83.494 153.049 81.5257C155.312 79.5573 156.444 76.9239 156.444 73.6255C156.444 70.0346 155.365 67.2815 153.209 65.3663C151.079 63.4512 147.991 62.4803 143.945 62.4537H132.204V84.4782Z" fill="#F2F2F2"/>
<path d="M183.159 114.243H175.492V56.1495H183.159V114.243Z" fill="#F2F2F2"/>
<path d="M302.758 114.243H295.051L265.78 69.476V114.243H258.073V56.1495H265.78L295.131 101.116V56.1495H302.758V114.243Z" fill="#F2F2F2"/>
<path fill-rule="evenodd" clip-rule="evenodd" d="M43.1139 63.4996L18.9261 109.165H67.3018L43.1139 63.4996ZM44.921 56.2688C44.1531 54.8191 42.0747 54.8191 41.3068 56.2688L12.2403 111.144C11.5196 112.505 12.5068 114.143 14.0474 114.143H72.1805C73.7211 114.143 74.7082 112.505 73.9876 111.144L44.921 56.2688Z" fill="#F2F2F2"/>
<path fill-rule="evenodd" clip-rule="evenodd" d="M220.31 109.307C234.496 109.307 245.996 97.8171 245.996 83.6429C245.996 69.4687 234.496 57.9782 220.31 57.9782C206.124 57.9782 194.624 69.4687 194.624 83.6429C194.624 97.8171 206.124 109.307 220.31 109.307ZM220.31 114.286C237.248 114.286 250.978 100.566 250.978 83.6429C250.978 66.7193 237.248 53 220.31 53C203.372 53 189.641 66.7193 189.641 83.6429C189.641 100.566 203.372 114.286 220.31 114.286Z" fill="#F2F2F2"/>
<path d="M230.459 83.2143C230.459 88.8555 225.882 93.4286 220.236 93.4286C214.59 93.4286 210.013 88.8555 210.013 83.2143C210.013 77.5731 214.59 73 220.236 73C225.882 73 230.459 77.5731 230.459 83.2143Z" fill="#F2F2F2"/>
<path fill-rule="evenodd" clip-rule="evenodd" d="M151.863 155C191.385 155 223.423 122.988 223.423 83.5C223.423 44.0116 191.385 12 151.863 12C123.971 12 99.8062 27.9443 88 51.2085C99.5402 29.6586 122.271 15 148.426 15C186.258 15 216.926 45.6685 216.926 83.5C216.926 121.332 186.258 152 148.426 152C122.272 152 99.5403 137.341 88 115.791C99.8062 139.056 123.971 155 151.863 155Z" fill="#F2F2F2"/>
<path d="M148.521 120.987V124.042H146.922L146.779 122.457H143.703V133.34L145.255 133.605V134.801H140.275V133.605L141.828 133.34V122.457H138.742L138.609 124.042H137V120.987H148.521Z" fill="#F2F2F2"/>
<path d="M153.473 135C152.038 135 150.895 134.526 150.045 133.577C149.201 132.622 148.778 131.385 148.778 129.867V129.45C148.778 127.989 149.213 126.774 150.083 125.806C150.959 124.832 151.994 124.345 153.187 124.345C154.571 124.345 155.618 124.763 156.329 125.598C157.046 126.433 157.405 127.546 157.405 128.937V130.104H150.721L150.692 130.152C150.711 131.139 150.962 131.951 151.444 132.59C151.927 133.223 152.603 133.539 153.473 133.539C154.107 133.539 154.663 133.45 155.139 133.273C155.621 133.09 156.037 132.84 156.386 132.524L157.119 133.738C156.751 134.092 156.262 134.393 155.653 134.639C155.05 134.88 154.323 135 153.473 135ZM153.187 125.816C152.559 125.816 152.022 126.082 151.578 126.613C151.133 127.138 150.86 127.799 150.759 128.596L150.778 128.643H155.529V128.397C155.529 127.663 155.333 127.049 154.939 126.556C154.545 126.063 153.961 125.816 153.187 125.816Z" fill="#F2F2F2"/>
<path d="M163.889 133.539C164.512 133.539 165.057 133.349 165.527 132.97C166.003 132.584 166.241 132.113 166.241 131.556H167.927L167.946 131.613C167.977 132.498 167.581 133.286 166.755 133.975C165.937 134.658 164.981 135 163.889 135C162.391 135 161.246 134.513 160.452 133.539C159.665 132.565 159.271 131.341 159.271 129.867V129.469C159.271 128.008 159.668 126.79 160.462 125.816C161.255 124.836 162.398 124.345 163.889 124.345C164.715 124.345 165.454 124.481 166.108 124.753C166.768 125.025 167.314 125.398 167.746 125.873L167.831 128.15H166.337L165.927 126.537C165.705 126.322 165.419 126.148 165.07 126.015C164.721 125.882 164.327 125.816 163.889 125.816C162.906 125.816 162.201 126.17 161.776 126.879C161.357 127.581 161.147 128.444 161.147 129.469V129.867C161.147 130.917 161.357 131.793 161.776 132.495C162.195 133.191 162.899 133.539 163.889 133.539Z" fill="#F2F2F2"/>
<path d="M169.517 133.605L171.069 133.34V121.471L169.517 121.205V120H172.945V125.901C173.3 125.408 173.735 125.025 174.249 124.753C174.763 124.481 175.335 124.345 175.963 124.345C177.068 124.345 177.924 124.674 178.534 125.332C179.143 125.99 179.448 127.002 179.448 128.368V133.34L181 133.605V134.801H176.02V133.605L177.572 133.34V128.349C177.572 127.502 177.388 126.875 177.02 126.471C176.658 126.066 176.115 125.863 175.392 125.863C174.878 125.863 174.408 125.987 173.982 126.233C173.564 126.474 173.218 126.803 172.945 127.22V133.34L174.497 133.605V134.801H169.517V133.605Z" fill="#F2F2F2"/>
</svg>
