<svg width="126" height="61" viewBox="0 0 126 61" fill="none" xmlns="http://www.w3.org/2000/svg">
<path d="M33.0376 40.9421H44.978V43.6143H29.6978V18.833H33.0376V40.9421Z" fill="#F2F2F2"/>
<path d="M58.0086 33.5894H52.0904V43.6143H48.7505V18.833H57.0915C59.9295 18.833 62.1099 19.4684 63.6328 20.7393C65.1671 22.0101 65.9343 23.8596 65.9343 26.2878C65.9343 27.831 65.5075 29.1755 64.6538 30.3216C63.8116 31.4676 62.6348 32.3243 61.1235 32.8916L67.0418 43.41V43.6143H63.477L58.0086 33.5894ZM52.0904 30.9173H57.1953C58.8451 30.9173 60.1545 30.4974 61.1235 29.6578C62.1042 28.8181 62.5945 27.6948 62.5945 26.2878C62.5945 24.756 62.1272 23.5816 61.1928 22.7646C60.2698 21.9477 58.9316 21.5335 57.178 21.5222H52.0904V30.9173Z" fill="#F2F2F2"/>
<path d="M74.1715 43.6143H70.8489V18.833H74.1715V43.6143Z" fill="#F2F2F2"/>
<path d="M126 43.6143H122.66L109.975 24.5177V43.6143H106.636V18.833H109.975L122.695 38.0147V18.833H126V43.6143Z" fill="#F2F2F2"/>
<path fill-rule="evenodd" clip-rule="evenodd" d="M13.4832 21.9685L3.00141 41.4479H23.965L13.4832 21.9685ZM14.2663 18.884C13.9336 18.2656 13.0329 18.2656 12.7001 18.884L0.104123 42.2924C-0.20817 42.8728 0.219602 43.5715 0.887227 43.5715H26.0792C26.7468 43.5715 27.1746 42.8728 26.8623 42.2924L14.2663 18.884Z" fill="#F2F2F2"/>
<path fill-rule="evenodd" clip-rule="evenodd" d="M90.2712 41.5088C96.4187 41.5088 101.402 36.6073 101.402 30.5609C101.402 24.5146 96.4187 19.6131 90.2712 19.6131C84.1236 19.6131 79.1401 24.5146 79.1401 30.5609C79.1401 36.6073 84.1236 41.5088 90.2712 41.5088ZM90.2712 43.6324C97.6111 43.6324 103.561 37.7801 103.561 30.5609C103.561 23.3418 97.6111 17.4895 90.2712 17.4895C82.9312 17.4895 76.981 23.3418 76.981 30.5609C76.981 37.7801 82.9312 43.6324 90.2712 43.6324Z" fill="#F2F2F2"/>
<path d="M94.6692 30.3781C94.6692 32.7845 92.6858 34.7353 90.2392 34.7353C87.7925 34.7353 85.8091 32.7845 85.8091 30.3781C85.8091 27.9718 87.7925 26.021 90.2392 26.021C92.6858 26.021 94.6692 27.9718 94.6692 30.3781Z" fill="#F2F2F2"/>
<path fill-rule="evenodd" clip-rule="evenodd" d="M60.6098 61C77.7364 61 91.6202 47.3447 91.6202 30.5C91.6202 13.6553 77.7364 0 60.6098 0C48.5227 0 38.0508 6.80143 32.9346 16.7253C37.9355 7.5327 47.7861 1.27972 59.1204 1.27972C75.5147 1.27972 88.8049 14.3621 88.8049 30.5C88.8049 46.6379 75.5147 59.7203 59.1204 59.7203C47.7861 59.7203 37.9355 53.4673 32.9346 44.2747C38.0508 54.1986 48.5227 61 60.6098 61Z" fill="#F2F2F2"/>
<path d="M59.1617 46.4907V47.7939H58.4685L58.4066 47.118H57.0738V51.7602L57.7464 51.8735V52.3834H55.5884V51.8735L56.261 51.7602V47.118H54.924L54.8663 47.7939H54.1689V46.4907H59.1617Z" fill="#F2F2F2"/>
<path d="M61.3074 52.4684C60.6857 52.4684 60.1905 52.2661 59.8219 51.8613C59.456 51.4539 59.2731 50.9264 59.2731 50.2789V50.1008C59.2731 49.4776 59.4615 48.9595 59.8384 48.5467C60.218 48.1312 60.6664 47.9234 61.1836 47.9234C61.7833 47.9234 62.2371 48.1015 62.5452 48.4577C62.8561 48.8138 63.0115 49.2887 63.0115 49.8823V50.3801H60.1149L60.1025 50.4003C60.1107 50.8212 60.2194 51.1679 60.4285 51.4404C60.6375 51.7103 60.9305 51.8452 61.3074 51.8452C61.5824 51.8452 61.8231 51.8074 62.0295 51.7318C62.2385 51.6536 62.4187 51.547 62.57 51.4121L62.8877 51.9302C62.7282 52.0812 62.5163 52.2094 62.2523 52.3146C61.9909 52.4172 61.676 52.4684 61.3074 52.4684ZM61.1836 48.5507C60.9112 48.5507 60.6788 48.6641 60.4862 48.8907C60.2937 49.1147 60.1754 49.3966 60.1314 49.7366L60.1396 49.7568H62.1986V49.6516C62.1986 49.3386 62.1134 49.0769 61.9428 48.8664C61.7722 48.656 61.5192 48.5507 61.1836 48.5507Z" fill="#F2F2F2"/>
<path d="M65.8215 51.8452C66.0911 51.8452 66.3276 51.7642 66.5312 51.6023C66.7375 51.4377 66.8407 51.2367 66.8407 50.9993H67.571L67.5793 51.0236C67.593 51.4013 67.4211 51.7372 67.0635 52.0313C66.7086 52.3227 66.2946 52.4684 65.8215 52.4684C65.1723 52.4684 64.6758 52.2607 64.3319 51.8452C63.9908 51.4296 63.8202 50.9076 63.8202 50.2789V50.1089C63.8202 49.4856 63.9922 48.9663 64.336 48.5507C64.6799 48.1325 65.175 47.9234 65.8215 47.9234C66.1791 47.9234 66.4996 47.9814 66.7829 48.0975C67.069 48.2135 67.3056 48.3727 67.4926 48.575L67.5297 49.5464H66.8819L66.7045 48.8583C66.6082 48.7666 66.4844 48.6924 66.3331 48.6357C66.1818 48.5791 66.0113 48.5507 65.8215 48.5507C65.3951 48.5507 65.0898 48.7018 64.9054 49.004C64.7239 49.3035 64.6331 49.6718 64.6331 50.1089V50.2789C64.6331 50.7268 64.7239 51.1005 64.9054 51.4C65.087 51.6968 65.3923 51.8452 65.8215 51.8452Z" fill="#F2F2F2"/>
<path d="M68.2601 51.8735L68.9327 51.7602V46.6971L68.2601 46.5838V46.0698H69.7455V48.5872C69.8996 48.3767 70.088 48.2135 70.3108 48.0975C70.5337 47.9814 70.7812 47.9234 71.0536 47.9234C71.5322 47.9234 71.9036 48.0637 72.1676 48.3443C72.4317 48.6249 72.5638 49.0566 72.5638 49.6394V51.7602L73.2363 51.8735V52.3834H71.0783V51.8735L71.7509 51.7602V49.6313C71.7509 49.2698 71.6711 49.0027 71.5116 48.83C71.3548 48.6573 71.1196 48.571 70.806 48.571C70.5832 48.571 70.3796 48.6236 70.1953 48.7288C70.0137 48.8314 69.8638 48.9717 69.7455 49.1497V51.7602L70.4181 51.8735V52.3834H68.2601V51.8735Z" fill="#F2F2F2"/>
</svg>
